<svg xmlns="http://www.w3.org/2000/svg" width="25px" height="18px" viewBox="18.5 15 25 18"><style>.style0{fill:#572364;}</style><g><path d="M20.286 18.6h21.429c0.987 0 1.785-0.806 1.785-1.8S42.702 15 41.7 15H20.286 c-0.986 0-1.786 0.806-1.786 1.8S19.299 18.6 20.3 18.6z" class="style0"/><path d="M41.715 22.2H20.286c-0.986 0-1.786 0.805-1.786 1.8c0 1 0.8 1.8 1.8 1.801h21.429 c0.987 0 1.785-0.807 1.785-1.801C43.5 23 42.7 22.2 41.7 22.2z" class="style0"/><path d="M41.715 29.4H20.286c-0.986 0-1.786 0.805-1.786 1.799S19.299 33 20.3 33h21.429 c0.987 0 1.785-0.807 1.785-1.801S42.702 29.4 41.7 29.4z" class="style0"/></g></svg>